# xmcd
#
# Track frame offsets: 
#        151
#        17048
#        33199
#        51114
#        73575
#        90334
#        107995
#        122676
#        138843
#        155836
#        176795
#        190462
#        210327
#        224998
#
# Disc length: 3275 seconds
#
# Revision: 0
# Processed by: cddbd v1.5.1PL2 Copyright (c) Steve Scherf et al.
# Submitted via: ExactAudioCopy v0.95b4
#
DISCID=cd0cc90e
DTITLE=บานเย็น  รากแก่น  เย็นจิตร  พรเทวี - คู่ฮิตลูกทุ่ง
DYEAR=2004
DGENRE=Country
TTITLE0=ชู้ในตู้ผ้า
TTITLE1=งิ้วต่องต้อนอ้อนผุ้บ่าว
TTITLE2=สาวดำรำพัน
TTITLE3=ยอมเจ็บบ่ยอมอาย
TTITLE4=ผัวสามสไตล์
TTITLE5=เสื้อหลายสีพี่หลายใจ
TTITLE6=น้ำตาหล่นบนเวที
TTITLE7=โทรศัพท์จากแฟนเก่า
TTITLE8=สาววันบ่กล้าเสี่ยว
TTITLE9=ขอดูใจก่อน
TTITLE10=วอนพี่มีรักเดียว
TTITLE11=คอยอ้าย
TTITLE12=อยากมีแฟนแดนใต้
TTITLE13=สาวหมอลำ
EXTD=
EXTT0=
EXTT1=
EXTT2=
EXTT3=
EXTT4=
EXTT5=
EXTT6=
EXTT7=
EXTT8=
EXTT9=
EXTT10=
EXTT11=
EXTT12=
EXTT13=
PLAYORDER=
